<?xml version="1.0" encoding="utf-8"?>
<!-- Generator: Adobe Illustrator 17.0.0, SVG Export Plug-In . SVG Version: 6.00 Build 0)  -->
<!DOCTYPE svg PUBLIC "-//W3C//DTD SVG 1.1//EN" "http://www.w3.org/Graphics/SVG/1.1/DTD/svg11.dtd">
<svg version="1.1" id="Layer_1" xmlns="http://www.w3.org/2000/svg" xmlns:xlink="http://www.w3.org/1999/xlink" x="0px" y="0px"
	 width="792px" height="224px" viewBox="0 0 792 224" enable-background="new 0 0 792 224" xml:space="preserve">
<g id="Layer_1_1_">
	<path fill="none" stroke="#aa0707" stroke-width="1.0959" stroke-miterlimit="10" d="M40,151.952l15.75,0.298l1.75-50.298l23-12
		l8.725,4.362l-0.038-11.627L98.5,82.75l0.023,16.213l5.977,2.989l2,50h20.924v-39.451h-3.863v-9.863h3.863l29.588-49.314
		l29.588,49.314h3.863v9.863H186.6v39.451h23.725v-49.314l29.588-19.726l29.588,19.726v49.314h17.863v-49.314l28.492-9.863
		l33.37,9.863v49.314h17.684V92.775h-4.862V86.2l29.587-23.013L421.223,86.2v6.575h-4.862v59.178h26.78V92.776h-4.863v-8.767h4.863
		V73.05h81.114v9.862h4.862v9.863h-4.862v59.178h19.725v-39.451l19.726-29.588l19.726,29.588v39.451h16.438v-69.04h39.452V73.05
		h9.862v9.862h9.863v69.04h19.725V92.775c0,0,9.315-19.726,29.589-19.726s29.588,19.726,29.588,19.726v59.177h18.727"/>
</g>
<g id="Layer_2">
	
		<rect x="449.204" y="113.156" fill="none" stroke="#aa0707" stroke-width="1.0959" stroke-miterlimit="10" width="18.852" height="18.438"/>
	
		<rect x="499.944" y="113.156" fill="none" stroke="#aa0707" stroke-width="1.0959" stroke-miterlimit="10" width="18.852" height="18.438"/>
	
		<rect x="449.388" y="82" fill="none" stroke="#aa0707" stroke-width="1.0959" stroke-miterlimit="10" width="28.475" height="22.25"/>
	
		<rect x="492.091" y="82" fill="none" stroke="#aa0707" stroke-width="1.0959" stroke-miterlimit="10" width="26.568" height="22.25"/>
	<polyline fill="none" stroke="#aa0707" stroke-width="1.0959" stroke-miterlimit="10" points="475.136,151.75 475.136,113.163 
		493.114,113.163 493.114,151.75 	"/>
	<circle fill="none" stroke="#aa0707" stroke-width="1.0959" stroke-miterlimit="10" cx="488.73" cy="133.625" r="1.608"/>
	<line fill="none" stroke="#aa0707" stroke-width="1.0959" stroke-miterlimit="10" x1="463.052" y1="82.5" x2="463.052" y2="104"/>
	
		<line fill="none" stroke="#aa0707" stroke-width="1.0959" stroke-miterlimit="10" x1="504.938" y1="82.333" x2="504.938" y2="104.333"/>
	
		<line fill="none" stroke="#aa0707" stroke-width="1.0959" stroke-miterlimit="10" x1="458.526" y1="113.501" x2="458.526" y2="131.317"/>
	
		<line fill="none" stroke="#aa0707" stroke-width="1.0959" stroke-miterlimit="10" x1="509.335" y1="113.363" x2="509.335" y2="131.594"/>
</g>
</svg>